<svg width="71" height="52" viewBox="0 0 71 52" fill="none" xmlns="http://www.w3.org/2000/svg">
<path d="M31.6789 49.1094C29.6247 49.1094 28.5976 49.1094 27.6517 48.9156C26.8139 48.744 26.0258 48.462 25.3263 48.0834C24.5366 47.656 23.906 47.0627 22.6448 45.8761L3.77809 28.1256C2.80079 27.2061 2.31214 26.7463 2.1243 26.2387C1.95857 25.7907 1.95857 25.3186 2.1243 24.8707C2.31214 24.363 2.80079 23.9033 3.77809 22.9838L22.6448 5.23325C23.906 4.0467 24.5366 3.45342 25.3263 3.02601C26.0258 2.6474 26.8139 2.36537 27.6517 2.19375C28.5976 2 29.6247 2 31.6789 2L57.555 2C61.5611 2 63.5642 2 65.0943 2.57051C66.4403 3.07235 67.5346 3.87311 68.2204 4.85802C69 5.97771 69 7.44348 69 10.375L69 40.7344C69 43.6659 69 45.1317 68.2204 46.2514C67.5346 47.2363 66.4403 48.037 65.0943 48.5389C63.5642 49.1094 61.5611 49.1094 57.555 49.1094L31.6789 49.1094Z" stroke="white" stroke-width="4" stroke-linecap="round" stroke-linejoin="round"/>
<path d="M51.7266 17.7031L35.5 33.9297M35.5 17.7031L51.7266 33.9297" stroke="white" stroke-width="4" stroke-linecap="round" stroke-linejoin="round"/>
</svg>
