<svg width="52" height="46" viewBox="0 0 52 46" fill="none" xmlns="http://www.w3.org/2000/svg">
<path d="M49.7867 6.11909H40.4275C39.8602 3.20604 37.3013 1 34.2368 1C31.1723 1 28.6134 3.20604 28.0461 6.11909H2.21334C1.54281 6.11909 1 6.66501 1 7.33771C1 8.01041 1.54355 8.55632 2.21334 8.55632H28.0454C28.6127 11.4694 31.1715 13.6754 34.2361 13.6754C37.3006 13.6754 39.8594 11.4694 40.4268 8.55632H49.7859C50.4565 8.55632 50.9993 8.01041 50.9993 7.33771C50.9993 6.66501 50.4557 6.11909 49.7859 6.11909H49.7867ZM34.2368 11.2382C32.0953 11.2382 30.3532 9.48856 30.3532 7.33771C30.3532 5.18685 32.0953 3.43724 34.2368 3.43724C36.3783 3.43724 38.1204 5.18685 38.1204 7.33771C38.1204 9.48856 36.3783 11.2382 34.2368 11.2382ZM49.7867 21.7814H23.7363C23.169 18.8683 20.6102 16.6623 17.5456 16.6623C14.4811 16.6623 11.9223 18.8683 11.3549 21.7814H2.21334C1.54281 21.7814 1 22.3273 1 23C1 23.6727 1.54355 24.2186 2.21334 24.2186H11.3549C11.9223 27.1317 14.4811 29.3377 17.5456 29.3377C20.6102 29.3377 23.169 27.1317 23.7363 24.2186H49.7867C50.4572 24.2186 51 23.6727 51 23C51 22.3273 50.4565 21.7814 49.7867 21.7814ZM17.5456 26.9005C15.4041 26.9005 13.6621 25.1509 13.6621 23C13.6621 20.8491 15.4041 19.0995 17.5456 19.0995C19.6872 19.0995 21.4292 20.8491 21.4292 23C21.4292 25.1509 19.6872 26.9005 17.5456 26.9005ZM49.7867 37.4437H40.4275C39.8602 34.5306 37.3013 32.3246 34.2368 32.3246C31.1723 32.3246 28.6134 34.5306 28.0461 37.4437H2.21334C1.54281 37.4437 1 37.9896 1 38.6623C1 39.335 1.54355 39.8809 2.21334 39.8809H28.0454C28.6127 42.794 31.1715 45 34.2361 45C37.3006 45 39.8594 42.794 40.4268 39.8809H49.7859C50.4565 39.8809 50.9993 39.335 50.9993 38.6623C50.9993 37.9896 50.4557 37.4437 49.7859 37.4437H49.7867ZM34.2368 42.5628C32.0953 42.5628 30.3532 40.8131 30.3532 38.6623C30.3532 36.5114 32.0953 34.7618 34.2368 34.7618C36.3783 34.7618 38.1204 36.5114 38.1204 38.6623C38.1204 40.8131 36.3783 42.5628 34.2368 42.5628Z" fill="#20232D" stroke="#20232D" stroke-width="2" stroke-miterlimit="10"/>
</svg>
