<svg width="133" height="133" viewBox="0 0 133 133" fill="none" xmlns="http://www.w3.org/2000/svg">
<path d="M116.375 99.75L110.833 105.813C107.893 109.027 103.907 110.833 99.7508 110.833C95.5945 110.833 91.6083 109.027 88.6689 105.813C85.7254 102.605 81.7396 100.803 77.5845 100.803C73.4293 100.803 69.4435 102.605 66.5 105.813M16.6251 110.833H25.9049C28.6158 110.833 29.9712 110.833 31.2468 110.527C32.3777 110.256 33.4588 109.808 34.4504 109.2C35.5689 108.515 36.5274 107.556 38.4443 105.639L108.063 36.0208C112.654 31.4299 112.654 23.9867 108.063 19.3958C103.472 14.8049 96.0286 14.8049 91.4378 19.3958L21.8191 89.0143C19.9022 90.9312 18.9438 91.8896 18.2584 93.0081C17.6507 93.9998 17.2029 95.0809 16.9314 96.2118C16.6251 97.4874 16.6251 98.8428 16.6251 101.554V110.833Z" stroke="#D2D2D2" stroke-width="6" stroke-linecap="round" stroke-linejoin="round"/>
</svg>
