<svg width="28" height="28" viewBox="0 0 28 28" fill="none" xmlns="http://www.w3.org/2000/svg">
<g clip-path="url(#clip0_296_3369)">
<path d="M20.6756 15.0247C20.6575 12.0487 23.1049 10.6152 23.2136 10.5426C21.8177 8.51023 19.6604 8.23804 18.8989 8.21989C17.086 8.03843 15.3275 9.30866 14.403 9.30866C13.4784 9.30866 12.0462 8.23804 10.5052 8.27433C8.52917 8.31062 6.69815 9.45383 5.68293 11.214C3.59809 14.8251 5.15719 20.1419 7.15137 23.0635C8.14847 24.497 9.32685 26.0939 10.8497 26.0394C12.3544 25.985 12.8983 25.0777 14.7112 25.0777C16.524 25.0777 17.0317 26.0394 18.5908 26.0031C20.2042 25.985 21.2013 24.5696 22.1803 23.1179C23.3405 21.4848 23.7938 19.8697 23.8119 19.779C23.7756 19.779 20.6937 18.5814 20.6575 15.0247H20.6756Z" fill="white"/>
<path d="M17.7388 6.29638C18.5365 5.29834 19.0985 3.91923 18.9353 2.52197C17.7751 2.57641 16.3066 3.3204 15.4727 4.31844C14.7294 5.18946 14.0586 6.60486 14.2399 7.94768C15.5452 8.03841 16.8867 7.29442 17.7388 6.29638Z" fill="white"/>
</g>
<defs>
<clipPath id="clip0_296_3369">
<rect width="19.1079" height="23.5175" fill="white" transform="translate(4.72217 2.52197)"/>
</clipPath>
</defs>
</svg>
