<svg width="60" height="60" viewBox="0 0 60 60" fill="none" xmlns="http://www.w3.org/2000/svg">
<path d="M44.3618 7.03203C46.7737 4.54083 50.7588 4.5086 53.2106 6.96047C55.5953 9.34516 55.6397 13.1976 53.3106 15.6366L46.364 22.911C45.8195 23.4812 45.5472 23.7663 45.3795 24.1002C45.2309 24.3958 45.1426 24.7179 45.1194 25.0479C45.0933 25.4206 45.182 25.8047 45.3592 26.5729L49.679 45.2918C49.861 46.0804 49.9519 46.4746 49.9226 46.856C49.8966 47.1936 49.8023 47.5223 49.6454 47.8224C49.4682 48.1613 49.1821 48.4475 48.6098 49.0197L47.6829 49.9466C46.1676 51.462 45.4099 52.2197 44.6344 52.3568C43.9572 52.4766 43.2607 52.3121 42.7086 51.9022C42.0763 51.4327 41.7374 50.4162 41.0598 48.3831L36.0354 33.3099L27.6721 41.6732C27.1728 42.1724 26.9232 42.422 26.7563 42.716C26.6083 42.9764 26.5084 43.2613 26.4612 43.557C26.408 43.8908 26.447 44.2417 26.5249 44.9434L26.9842 49.0768C27.0622 49.7785 27.1012 50.1293 27.0479 50.4632C27.0008 50.7589 26.9008 51.0438 26.7529 51.3042C26.5859 51.5982 26.3363 51.8478 25.8371 52.347L25.3434 52.8407C24.1607 54.0234 23.5694 54.6147 22.9123 54.786C22.3359 54.9362 21.7248 54.8757 21.1891 54.6153C20.5783 54.3185 20.1145 53.6227 19.1867 52.2311L15.2659 46.3499C15.1002 46.1013 15.0173 45.977 14.9211 45.8642C14.8356 45.7641 14.7424 45.6708 14.6422 45.5853C14.5295 45.4891 14.4051 45.4063 14.1565 45.2405L8.27531 41.3197C6.88369 40.392 6.18788 39.9281 5.89108 39.3173C5.63075 38.7816 5.57025 38.1705 5.72046 37.5942C5.89171 36.937 6.48303 36.3457 7.66568 35.1631L8.15944 34.6693C8.65866 34.1701 8.90827 33.9205 9.20221 33.7535C9.46262 33.6056 9.74749 33.5057 10.0432 33.4585C10.3771 33.4053 10.7279 33.4442 11.4296 33.5222L15.5631 33.9815C16.2647 34.0594 16.6156 34.0984 16.9494 34.0452C17.2452 33.998 17.53 33.8981 17.7904 33.7502C18.0844 33.5832 18.334 33.3336 18.8332 32.8344L27.1965 24.4711L12.1233 19.4467C10.0903 18.769 9.07372 18.4301 8.60424 17.7979C8.19428 17.2458 8.02984 16.5492 8.14961 15.872C8.28677 15.0965 9.04445 14.3389 10.5598 12.8235L11.4867 11.8966C12.059 11.3243 12.3451 11.0382 12.6841 10.861C12.9841 10.7041 13.3129 10.6099 13.6504 10.5839C14.0318 10.5545 14.4261 10.6455 15.2146 10.8274L33.8624 15.1308C34.6373 15.3096 35.0248 15.399 35.3988 15.3724C35.76 15.3467 36.1113 15.2429 36.4284 15.0681C36.7568 14.8871 37.0334 14.6014 37.5865 14.0301L44.3618 7.03203Z" stroke="white" stroke-width="3" stroke-linecap="round" stroke-linejoin="round"/>
</svg>
