<svg width="60" height="60" viewBox="0 0 60 60" fill="none" xmlns="http://www.w3.org/2000/svg">
<path fill-rule="evenodd" clip-rule="evenodd" d="M53.0188 12.0871L53.018 12.0873C52.3854 12.273 51.7381 12.4629 51.0665 12.6603L51.0682 12.6571C51.2094 12.203 51.3452 11.7655 51.4774 11.3393L51.4781 11.3373L51.4782 11.337C51.7514 10.4565 52.0098 9.62397 52.2704 8.79213C52.7535 7.24915 52.204 6.25838 50.6219 5.81982C49.6898 5.56248 49.3637 5.71367 49.0854 6.59507C48.7801 7.56241 48.4793 8.53121 48.1785 9.49998L48.1784 9.50017L48.1784 9.50036L48.1783 9.50055L48.1783 9.50074L48.1782 9.50093L48.1782 9.50112L48.1781 9.50131L48.178 9.5015L48.178 9.50169L48.1779 9.50188C47.7747 10.8004 47.3716 12.0989 46.9576 13.3937C46.8226 13.8168 46.9264 14.0821 47.2491 14.3716C47.9128 14.9684 48.5814 15.5699 49.1661 16.2374C49.5976 16.7296 50.0093 16.7553 50.5923 16.5719C52.1547 16.0803 53.728 15.6173 55.3007 15.1546C55.6625 15.0481 56.0243 14.9416 56.3859 14.8349C57.7846 14.4263 58.2743 13.5535 57.8549 12.2164C57.4629 10.9667 57.2356 10.8461 55.9775 11.2176C55.0051 11.5042 54.0328 11.7895 53.0227 12.086L53.0195 12.0869L53.0188 12.0871ZM50.6589 24.3523C50.6585 23.7688 50.6581 23.1726 50.6581 22.5573L51.5863 23.1555L51.5864 23.1556L51.5883 23.1568C52.4907 23.7384 53.3362 24.2833 54.1807 24.83C55.5312 25.7038 56.6488 25.4744 57.5337 24.1416C58.0673 23.339 58.0113 23.0253 57.2044 22.493C55.9807 21.6872 54.7522 20.8894 53.5203 20.0948C53.2341 19.9101 52.9488 19.6861 52.6633 19.4619C51.9943 18.9367 51.3236 18.4101 50.6334 18.3819C49.9599 18.3542 49.2741 18.7759 48.5802 19.2026C48.2273 19.4196 47.8724 19.6379 47.5159 19.7989C47.0268 20.0193 46.9362 20.3265 46.9412 20.7993C46.9581 22.2477 46.9555 23.6961 46.9529 25.1445C46.952 25.6712 46.9511 26.1979 46.9511 26.7246C46.9511 28.2344 47.7388 28.9828 49.3143 28.97C50.4341 28.9603 50.6548 28.748 50.6581 27.6511C50.6603 26.5668 50.6596 25.4832 50.6589 24.3523ZM40.8777 13.0638C40.554 12.5928 40.2389 12.135 39.9301 11.6865C39.216 10.6494 38.5355 9.66108 37.8607 8.66967C37.3551 7.9266 37.4177 7.56632 38.1654 7.07576C38.3313 6.96685 38.4834 6.86533 38.6235 6.77177C40.2613 5.67839 40.2687 5.67347 41.6386 7.70625C42.7206 9.30981 43.8124 10.9069 44.9339 12.4848C45.237 12.911 45.3028 13.2359 45.0163 13.7007C44.8193 14.0196 44.6563 14.3805 44.4943 14.7393L44.4943 14.7394C44.1824 15.4302 43.8741 16.1131 43.3332 16.472C42.7564 16.8546 41.9349 16.773 41.1125 16.6914C40.7491 16.6553 40.3855 16.6192 40.0428 16.6232C38.5112 16.6409 36.978 16.6344 35.4448 16.6232C34.4863 16.6167 34.2508 16.3723 34.2409 15.4217C34.2399 15.3267 34.2387 15.2354 34.2376 15.1478C34.2247 14.128 34.218 13.5988 34.4791 13.3277C34.7609 13.0354 35.3543 13.0433 36.5878 13.0598L36.647 13.0606C37.5757 13.0727 38.5036 13.0698 39.4795 13.0667C39.9331 13.0653 40.397 13.0638 40.8761 13.0638H40.8777ZM23.5661 31.1515C23.5678 36.9497 18.7705 41.6157 12.8073 41.6157H12.8056C6.83413 41.6157 2.02203 36.961 2.0138 31.1756C2.00556 25.3934 6.80943 20.7243 12.7809 20.713C18.7491 20.7017 23.5645 25.3613 23.5661 31.1515ZM18.8743 31.1402C18.8496 27.8945 16.1141 25.2487 12.7891 25.2551V25.2567C9.44604 25.2631 6.72873 27.9041 6.72544 31.1499C6.72214 34.4326 9.47733 37.1057 12.8402 37.08C16.1602 37.0543 18.899 34.3586 18.8743 31.1402ZM27.1857 41.3889C28.2199 42.1063 29.3892 42.0162 30.486 41.6511C31.512 41.3101 31.708 40.3998 31.6931 39.4187C31.6746 38.1816 31.6781 36.9445 31.6818 35.634V35.6338V35.6337V35.6336V35.6335V35.6333V35.6332V35.633L31.6818 35.6315C31.6833 35.0805 31.6849 34.5165 31.6849 33.934C34.3248 36.3965 36.7951 38.6997 39.267 41.0029C40.5631 42.2108 41.6072 42.1143 43.0531 40.6523C43.9885 39.7082 43.8848 38.563 42.7567 37.5079C42.4594 37.2298 42.1623 36.9516 41.8652 36.6734C40.1275 35.0463 38.3895 33.4189 36.6287 31.8174C36.189 31.4169 36.1512 31.1966 36.5793 30.7494C38.5178 28.7256 40.4215 26.6695 42.3245 24.6142L42.3246 24.6141L42.4504 24.4783C43.5933 23.2447 43.5192 22.2233 42.2445 21.1103C41.0769 20.0906 39.985 20.163 38.8948 21.3339C38.5818 21.6702 38.2691 22.0069 37.9565 22.3436C37.6441 22.68 37.3318 23.0164 37.019 23.3524C35.3518 25.1391 33.6845 26.9242 32.0025 28.7252L31.8199 28.9207C31.6399 28.6928 31.66 28.4774 31.6787 28.2758L31.6787 28.2758C31.6843 28.2155 31.6898 28.1565 31.6898 28.0988C31.687 27.3551 31.6896 26.6111 31.6923 25.867C31.6958 24.8748 31.6992 23.8826 31.6898 22.8908C31.6767 21.4835 30.929 20.7484 29.5308 20.7147C29.2031 20.7066 28.8737 20.7066 28.5444 20.7147C27.2565 20.7517 26.466 21.4561 26.4611 22.7042C26.4452 26.9373 26.4474 31.1713 26.4497 35.4048V35.4049V35.4051V35.4053V35.4054V35.4056V35.4057V35.4059C26.4504 36.8872 26.4512 38.3685 26.4512 39.8497C26.4512 40.4722 26.6604 41.0271 27.1824 41.3889H27.1857ZM30.9206 48.3374C31.1248 49.0821 30.8202 49.6257 29.8946 50.1822C30.947 50.6422 31.2302 51.062 31.1248 51.9498C31.0342 52.7042 30.5303 53.2623 29.5998 53.3797C28.9862 53.4575 28.3616 53.4562 27.7374 53.4549H27.7373C27.4586 53.4543 27.1799 53.4537 26.9023 53.4601C26.5812 53.4666 26.5746 53.2542 26.5746 53.0291L26.5752 52.424V52.4235C26.5768 50.813 26.5784 49.2037 26.5696 47.5943C26.568 47.2549 26.6915 47.1086 27.0456 47.1198C27.354 47.1299 27.6623 47.1335 27.9706 47.1372H27.9708C28.4 47.1422 28.8289 47.1472 29.2573 47.1697C30.0544 47.2115 30.6966 47.5187 30.9206 48.3374ZM28.6435 48.158L28.6434 48.158C28.5932 48.1531 28.543 48.1483 28.4932 48.1428C27.8591 48.0736 27.8443 48.4307 27.8953 48.8537C27.894 48.9019 27.8914 48.9509 27.8887 48.9997L27.8887 48.9998C27.8679 49.3841 27.8475 49.7582 28.4948 49.674C28.5565 49.666 28.6196 49.6595 28.6828 49.6529C29.1422 49.6055 29.6092 49.5572 29.6295 48.9421C29.652 48.2556 29.152 48.2072 28.6436 48.158L28.6435 48.158ZM27.8844 51.8734C27.8675 52.2 27.851 52.5179 28.4783 52.4854C29.3693 52.4404 29.8353 52.1493 29.8255 51.5381C29.8139 50.9221 29.3561 50.6422 28.4553 50.6117C27.8407 50.5907 27.8634 50.9024 27.8862 51.2152C27.8949 51.3341 27.9035 51.4532 27.8772 51.5542C27.8959 51.6529 27.8901 51.7637 27.8844 51.8734ZM43.7892 51.4586C43.7892 50.3102 43.1897 49.737 41.9908 49.7392L41.9764 49.7391L41.963 49.7388L41.9419 49.7385C41.9309 49.7384 41.9198 49.7385 41.9085 49.7392C41.8409 49.7438 41.7709 49.7413 41.7018 49.7388C41.4125 49.7285 41.1407 49.7187 41.1394 50.2394C41.1365 50.8159 41.4715 50.7751 41.785 50.7369C41.8257 50.732 41.866 50.727 41.9052 50.7235C42.4058 50.6785 42.6364 50.8329 42.5408 51.3331C42.5185 51.449 42.5314 51.5796 42.5442 51.71C42.5788 52.0612 42.6132 52.4112 41.9612 52.4686C40.288 52.6166 39.0923 51.1321 39.5946 49.4899C39.9882 48.2032 41.1509 47.6917 42.8752 48.0488C42.9347 48.0611 42.9967 48.083 43.0583 48.1047L43.0584 48.1048C43.2946 48.1883 43.5238 48.2693 43.58 47.7946C43.6327 47.3475 43.552 47.0934 43.0316 47.0355C42.911 47.0219 42.7905 47.0063 42.6701 46.9907L42.6701 46.9907C42.2199 46.9325 41.7703 46.8743 41.3156 46.9213C39.9108 47.066 38.735 47.5936 38.3348 49.0267C37.5789 51.7336 38.9721 53.5093 41.7849 53.4626C43.7151 53.4305 43.7925 53.3629 43.7925 51.5374V51.457L43.7892 51.4586ZM17.1788 49.6365L17.1789 49.6365C17.4296 49.7369 17.6803 49.8372 17.9209 49.9567C18.7592 50.3749 19.0655 50.9507 18.9535 51.8546C18.8531 52.6733 18.3327 53.114 17.552 53.3392C17.0119 53.4952 16.4668 53.492 15.9233 53.4389C14.7952 53.3295 14.7969 53.3151 15.0538 52.149C15.2048 52.1856 15.3519 52.2305 15.4971 52.2749L15.4971 52.2749C15.9457 52.412 16.3765 52.5436 16.8505 52.4063C17.2144 52.3002 17.5306 52.1393 17.6031 51.7533C17.6789 51.3383 17.3758 51.1132 17.0498 50.9523C16.8544 50.8561 16.6519 50.7729 16.4493 50.6896C16.2489 50.6072 16.0482 50.5248 15.8541 50.4296C14.9846 50.0002 14.7096 49.4823 14.81 48.5478C14.9023 47.6841 15.4391 47.2289 16.2576 47.0182C16.8274 46.8702 17.3907 46.9072 17.9671 46.9957C18.4068 47.0632 18.6456 47.1549 18.5649 47.6953C18.4918 48.1828 18.268 48.1227 18.0157 48.0549C17.955 48.0386 17.8926 48.0219 17.8304 48.0122C17.5619 47.9704 17.2836 47.9334 17.0152 47.9527C16.6084 47.9816 16.2692 48.1489 16.1703 48.5832C16.0649 49.0383 16.3383 49.2812 16.7187 49.4469C16.8705 49.513 17.0247 49.5747 17.1788 49.6365ZM6.15855 52.4026C5.20173 52.5907 4.35525 52.3801 3.77061 51.5582C3.2288 50.8006 3.24033 49.6104 3.78049 48.8303C4.36348 47.9891 5.20996 47.8251 6.16843 47.9956C6.32152 48.0228 6.47252 48.0622 6.66532 48.1125C6.76911 48.1396 6.885 48.1698 7.01985 48.2031C6.95243 48.0314 6.98602 47.854 7.01713 47.6898C7.06734 47.4247 7.11109 47.1937 6.71354 47.0756C5.1655 46.6156 2.63099 47.0225 2.13859 49.2759C1.8685 50.5127 1.92285 51.7094 2.94389 52.6084C4.03246 53.5654 5.36641 53.6024 6.73659 53.3242C6.95727 53.2791 7.0462 53.1971 7.06596 52.9623C7.12947 52.2072 6.71544 52.2891 6.21489 52.3882L6.15855 52.3993V52.4026ZM24.5328 47.1044C25.1619 47.0979 25.1602 47.4083 25.1569 47.8507L25.1557 48.0044C25.1429 49.6093 25.1301 51.2141 25.1652 52.819C25.1784 53.3674 24.9807 53.4768 24.462 53.4816C23.9482 53.4848 23.7884 53.3353 23.8263 52.8463L23.8366 52.7104C23.8742 52.2217 23.9128 51.7185 23.8164 51.2476C23.7703 51.0224 23.6962 50.8728 23.604 50.7763H21.3445C21.2589 50.8648 21.2111 51.0128 21.2309 51.2492C21.2575 51.5636 21.2506 51.8807 21.2438 52.1979C21.238 52.4698 21.2321 52.7418 21.2473 53.012C21.2748 53.4938 21.0049 53.48 20.7333 53.4662C20.6632 53.4626 20.5929 53.459 20.5277 53.4639C20.1802 53.4913 19.8903 53.4993 19.9117 52.9943C19.9397 52.3531 19.9339 51.7111 19.9281 51.0688C19.9257 50.8025 19.9233 50.5361 19.9233 50.2697C19.9233 50.0105 19.9254 49.7512 19.9275 49.4918V49.4918V49.4917C19.9327 48.8692 19.9378 48.2465 19.9134 47.6255C19.8936 47.1413 20.1653 47.1044 20.526 47.1269C20.5845 47.1306 20.6465 47.1294 20.7086 47.1283C20.9979 47.1231 21.2895 47.1177 21.2407 47.5997C21.2363 47.6522 21.2378 47.7054 21.2393 47.7589C21.24 47.7857 21.2407 47.8125 21.2407 47.8394C21.2506 48.917 21.2572 49.3883 21.603 49.5829H23.6764C23.8164 49.488 23.8576 49.3223 23.8395 49.0634C23.8262 48.8738 23.8307 48.6828 23.8353 48.4918V48.4918C23.8403 48.281 23.8453 48.0704 23.8263 47.8619C23.7769 47.3327 23.9268 47.1092 24.5328 47.1044ZM35.673 47.5711C35.5659 47.3025 35.4292 47.1578 35.0933 47.124C34.3637 47.0516 33.9207 47.1867 33.6441 47.9764C33.1921 49.2688 32.6726 50.5394 32.1543 51.807L32.1543 51.807C31.9398 52.3316 31.7255 52.8557 31.5163 53.3806C32.4781 53.6702 33.0479 53.4048 33.234 52.4815C33.262 52.3464 33.3048 52.2323 33.3839 52.1486H36.0583C36.1193 52.2162 36.1588 52.303 36.1753 52.4076C36.3482 53.4369 36.9855 53.6718 38.0033 53.3839L37.4558 52.0204C36.8567 50.5285 36.2629 49.0499 35.673 47.5695V47.5711ZM34.5159 48.9754L34.516 48.975L34.5164 48.9739C34.5767 48.8094 34.6429 48.6291 34.7162 48.4252C34.8126 48.6866 34.9027 48.9294 34.988 49.1593C35.1956 49.7186 35.3746 50.201 35.5462 50.6866C35.589 50.8056 35.5775 50.8973 35.5231 50.9552H34.0195C33.9965 50.9375 33.9751 50.9182 33.9537 50.8973C33.7862 50.7191 33.9209 50.4578 34.0543 50.1988C34.1111 50.0886 34.1677 49.9788 34.2007 49.876H34.199C34.2882 49.5963 34.3894 49.3204 34.5159 48.9754ZM11.1557 47.1279C11.428 47.1 11.7037 47.0719 11.8502 47.4383V47.4399C12.6424 49.4199 13.4345 51.3998 14.2299 53.3862C13.2814 53.6306 12.6012 53.5052 12.4299 52.4855C12.4052 52.3327 12.3509 52.2265 12.2751 52.1525H9.72251C9.50018 52.3021 9.35032 52.5578 9.26962 52.9294C9.13272 53.5577 8.74983 53.5189 8.32534 53.4759C8.12175 53.4553 7.90859 53.4337 7.70841 53.4843C7.8519 53.1236 7.9943 52.7659 8.13574 52.4105C8.80919 50.7188 9.46082 49.0818 10.1046 47.4415C10.2515 47.0637 10.5585 47.1015 10.8446 47.1366L10.8522 47.1375C10.9479 47.1491 11.0516 47.1385 11.1557 47.1279ZM10.6279 49.2915C10.6043 49.3686 10.5809 49.4449 10.5542 49.5196V49.518C10.2544 50.3527 10.1046 50.7725 10.261 50.9543H11.8453C11.8519 50.9527 11.8585 50.951 11.8651 50.951C11.7301 50.5743 11.5965 50.2005 11.4624 49.825C11.3101 49.3988 11.1572 48.9705 11.0005 48.5336C10.7868 48.7732 10.7061 49.0365 10.6279 49.2915Z" fill="white"/>
</svg>
