<svg width="60" height="60" viewBox="0 0 60 60" fill="none" xmlns="http://www.w3.org/2000/svg">
<path d="M55 25H5M27.5 47.5L47 47.5C49.8003 47.5 51.2004 47.5 52.27 46.955C53.2108 46.4757 53.9757 45.7108 54.455 44.77C55 43.7004 55 42.3003 55 39.5V20.5C55 17.6997 55 16.2996 54.455 15.2301C53.9757 14.2892 53.2108 13.5243 52.27 13.045C51.2004 12.5 49.8003 12.5 47 12.5H42.5M27.5 47.5L32.5 52.5M27.5 47.5L32.5 42.5M17.5 47.5H13C10.1997 47.5 8.79961 47.5 7.73005 46.955C6.78924 46.4757 6.02433 45.7108 5.54497 44.7699C5 43.7004 5 42.3003 5 39.5V20.5C5 17.6997 5 16.2996 5.54497 15.23C6.02434 14.2892 6.78924 13.5243 7.73005 13.045C8.79961 12.5 10.1997 12.5 13 12.5H32.5M32.5 12.5L27.5 17.5M32.5 12.5L27.5 7.5" stroke="white" stroke-width="3" stroke-linecap="round" stroke-linejoin="round"/>
</svg>
