<svg width="60" height="60" viewBox="0 0 60 60" fill="none" xmlns="http://www.w3.org/2000/svg">
<path d="M55 25H5M55 30V20.5C55 17.6997 55 16.2996 54.455 15.2301C53.9757 14.2892 53.2108 13.5243 52.27 13.045C51.2004 12.5 49.8003 12.5 47 12.5H13C10.1997 12.5 8.79961 12.5 7.73005 13.045C6.78924 13.5243 6.02434 14.2892 5.54497 15.23C5 16.2996 5 17.6997 5 20.5V39.5C5 42.3003 5 43.7004 5.54497 44.7699C6.02433 45.7108 6.78924 46.4757 7.73005 46.955C8.79961 47.5 10.1997 47.5 13 47.5H31M56.75 45C56.75 49.8325 52.8325 53.75 48 53.75C43.1675 53.75 39.25 49.8325 39.25 45C39.25 40.1675 43.1675 36.25 48 36.25C52.8325 36.25 56.75 40.1675 56.75 45Z" stroke="white" stroke-width="3" stroke-linecap="round" stroke-linejoin="round"/>
</svg>
