<svg width="60" height="60" viewBox="0 0 60 60" fill="none" xmlns="http://www.w3.org/2000/svg">
<path d="M15 25V35M45 25V35M5 20.5L5 39.5C5 42.3003 5 43.7004 5.54497 44.7699C6.02433 45.7108 6.78924 46.4757 7.73005 46.955C8.79961 47.5 10.1997 47.5 13 47.5L47 47.5C49.8003 47.5 51.2004 47.5 52.27 46.955C53.2108 46.4757 53.9757 45.7108 54.455 44.77C55 43.7004 55 42.3003 55 39.5V20.5C55 17.6997 55 16.2996 54.455 15.2301C53.9757 14.2892 53.2108 13.5243 52.27 13.045C51.2004 12.5 49.8003 12.5 47 12.5L13 12.5C10.1997 12.5 8.79961 12.5 7.73005 13.045C6.78924 13.5243 6.02433 14.2892 5.54497 15.23C5 16.2996 5 17.6997 5 20.5ZM36.25 30C36.25 33.4518 33.4518 36.25 30 36.25C26.5482 36.25 23.75 33.4518 23.75 30C23.75 26.5482 26.5482 23.75 30 23.75C33.4518 23.75 36.25 26.5482 36.25 30Z" stroke="white" stroke-width="3" stroke-linecap="round" stroke-linejoin="round"/>
</svg>
