<svg width="60" height="60" viewBox="0 0 60 60" fill="none" xmlns="http://www.w3.org/2000/svg">
<path d="M30 43.75H30.025M20.5 55H39.5C42.3003 55 43.7004 55 44.77 54.455C45.7108 53.9757 46.4757 53.2108 46.955 52.27C47.5 51.2004 47.5 49.8003 47.5 47V13C47.5 10.1997 47.5 8.79961 46.955 7.73005C46.4757 6.78924 45.7108 6.02433 44.77 5.54497C43.7004 5 42.3003 5 39.5 5H20.5C17.6997 5 16.2996 5 15.23 5.54497C14.2892 6.02433 13.5243 6.78924 13.045 7.73005C12.5 8.79961 12.5 10.1997 12.5 13V47C12.5 49.8003 12.5 51.2004 13.045 52.27C13.5243 53.2108 14.2892 53.9757 15.23 54.455C16.2996 55 17.6997 55 20.5 55ZM31.25 43.75C31.25 44.4404 30.6904 45 30 45C29.3096 45 28.75 44.4404 28.75 43.75C28.75 43.0596 29.3096 42.5 30 42.5C30.6904 42.5 31.25 43.0596 31.25 43.75Z" stroke="white" stroke-width="3" stroke-linecap="round" stroke-linejoin="round"/>
</svg>
