<svg width="28" height="28" viewBox="0 0 28 28" fill="none" xmlns="http://www.w3.org/2000/svg">
<g clip-path="url(#clip0_296_3358)">
<path d="M4.51289 2.87107C4.24877 3.15026 4.10791 3.56904 4.10791 4.10997V23.7056C4.10791 24.2465 4.26638 24.6827 4.51289 24.9445L4.58333 25.0143L15.6588 14.0386V13.7769L4.58333 2.80127L4.51289 2.87107Z" fill="#5BC9F4"/>
<path d="M19.3388 17.703L15.6587 14.0386V13.7769L19.3564 10.1125L23.8112 12.6253C25.0614 13.3232 25.0614 14.4749 23.8112 15.1729L19.4444 17.6332L19.3564 17.6856" fill="url(#paint0_linear_296_3358)"/>
<path d="M19.4267 17.6507L15.6586 13.9165L4.5127 24.9445C4.91768 25.3807 5.60439 25.4331 6.36153 24.9968L19.4091 17.6507" fill="url(#paint1_linear_296_3358)"/>
<path d="M19.4267 10.1647L6.37914 2.81853C5.60439 2.3823 4.93529 2.43465 4.5127 2.87088L15.6586 13.9163L19.4267 10.1822" fill="url(#paint2_linear_296_3358)"/>
</g>
<defs>
<linearGradient id="paint0_linear_296_3358" x1="27.7026" y1="13.9165" x2="2.06532" y2="13.9165" gradientUnits="userSpaceOnUse">
<stop stop-color="#FEE000"/>
<stop offset="0.4" stop-color="#FBBD0D"/>
<stop offset="0.77" stop-color="#F9A418"/>
<stop offset="1" stop-color="#F99B1C"/>
</linearGradient>
<linearGradient id="paint1_linear_296_3358" x1="-22.0754" y1="19.605" x2="20.6064" y2="19.605" gradientUnits="userSpaceOnUse">
<stop stop-color="#C81B6C"/>
<stop offset="1" stop-color="#ED4449"/>
</linearGradient>
<linearGradient id="paint2_linear_296_3358" x1="-5.25974" y1="8.21038" x2="18.8984" y2="8.21038" gradientUnits="userSpaceOnUse">
<stop stop-color="#279E6F"/>
<stop offset="0.04" stop-color="#2B9F6E"/>
<stop offset="0.46" stop-color="#52B16B"/>
<stop offset="0.8" stop-color="#6BBC69"/>
<stop offset="1" stop-color="#74C169"/>
</linearGradient>
<clipPath id="clip0_296_3358">
<rect width="20.6366" height="22.7714" fill="white" transform="translate(4.10791 2.52197)"/>
</clipPath>
</defs>
</svg>
