<svg width="80" height="27" viewBox="0 0 80 27" fill="none" xmlns="http://www.w3.org/2000/svg">
<path d="M25.6813 20.7099C27.0198 20.7099 28.1049 19.6248 28.1049 18.2863C28.1049 16.9478 27.0198 15.8628 25.6813 15.8628C24.3429 15.8628 23.2578 16.9478 23.2578 18.2863C23.2578 19.6248 24.3429 20.7099 25.6813 20.7099Z" fill="#9969FF"/>
<path d="M18.248 15.7878H2.49668C1.12035 15.7878 0 16.9082 0 18.2845C0 19.6608 1.12035 20.7812 2.49668 20.7812H18.248C19.6243 20.7812 20.7447 19.6608 20.7447 18.2845C20.7447 16.9082 19.6243 15.7878 18.248 15.7878Z" fill="url(#paint0_linear_335_3856)"/>
<path d="M18.248 0.0466309H2.49668C1.12035 0.0466309 0 1.16531 0 2.54331C0 3.9213 1.12035 5.03998 2.49668 5.03998H18.248C19.6243 5.03998 20.7447 3.91964 20.7447 2.54331C20.7447 1.16698 19.626 0.0466309 18.248 0.0466309Z" fill="url(#paint1_linear_335_3856)"/>
<path d="M20.5536 1.58752C20.1663 0.651684 19.2604 0.0466309 18.2464 0.0466309H17.2125L0.73311 16.526C0.0150245 17.2441 -0.196079 18.3129 0.191221 19.2488C0.317551 19.5529 0.498735 19.8256 0.731447 20.0566C1.20352 20.5287 1.83018 20.788 2.50006 20.788H3.53231L20.0134 4.3086C20.7298 3.59218 20.9426 2.52336 20.5553 1.58752H20.5536Z" fill="#652EBC"/>
<path d="M39.2688 13.243H34.9188V19.0326C34.9188 20.1413 34.199 20.7779 32.841 20.7779C31.4829 20.7779 30.7632 20.1413 30.7632 19.0326V2.35539C30.7632 0.831117 31.5943 0 33.1186 0H39.2688C43.4793 0 46.0291 2.32713 46.0291 6.62068C46.0291 10.9142 43.4809 13.2414 39.2688 13.2414V13.243ZM38.9646 3.32447H34.9204V9.91855H38.9646C40.7382 9.91855 41.8736 8.78325 41.8736 6.62234C41.8736 4.46144 40.7382 3.32613 38.9646 3.32613V3.32447Z" fill="#050513"/>
<path d="M54.2837 5.12471C59.021 5.12471 61.0157 7.23076 61.0157 11.2201V19.4199C61.0157 20.3342 60.296 20.778 58.9928 20.778C57.6896 20.778 56.9698 20.3342 56.9698 19.4199V19.2537C56.1387 20.2793 54.5879 20.9159 52.9256 20.9159C49.1856 20.9159 47.1909 18.893 47.1909 15.8179C47.1909 12.7427 49.4632 10.886 53.2032 10.886C54.5879 10.886 56.0839 11.0805 56.9715 11.3847V10.5536C56.9715 9.36174 56.0573 8.44752 54.0626 8.44752C53.1201 8.44752 52.0679 8.58548 51.0988 8.83482C50.1015 9.08415 49.3535 8.7517 49.0759 7.78262C48.8266 6.86839 49.1307 5.95416 50.1846 5.62172C51.5144 5.26101 52.8442 5.12305 54.2853 5.12305L54.2837 5.12471ZM56.9715 15.5685V14.3767C56.3897 14.1556 54.8937 13.9611 53.785 13.9611C52.1228 13.9611 51.2368 14.626 51.2368 15.7896C51.2368 16.9532 52.1228 17.6181 53.7301 17.6181C55.5586 17.6181 56.9715 16.7587 56.9715 15.5685Z" fill="#050513"/>
<path d="M71.3781 25.9308C70.9626 26.8451 69.8539 27.2889 68.6903 26.762C67.555 26.2633 67.1394 25.2111 67.5816 24.2686L69.6594 19.8354L63.9529 8.00531C63.4825 7.03623 63.9529 6.03889 65.0616 5.54022C66.1703 5.04154 67.3057 5.26262 67.8043 6.34307L71.8219 15.2078L76.0324 6.2317C76.4197 5.40059 77.4453 5.01329 78.6371 5.51196C79.8555 6.01063 80.2445 7.06282 79.8555 7.89394L71.3781 25.9292V25.9308Z" fill="#050513"/>
<defs>
<linearGradient id="paint0_linear_335_3856" x1="0" y1="18.2845" x2="20.7447" y2="18.2845" gradientUnits="userSpaceOnUse">
<stop stop-color="#220B59" stop-opacity="0.9"/>
<stop offset="0.02" stop-color="#240C5C" stop-opacity="0.9"/>
<stop offset="0.49" stop-color="#5224A0" stop-opacity="0.97"/>
<stop offset="0.7" stop-color="#652EBC"/>
</linearGradient>
<linearGradient id="paint1_linear_335_3856" x1="0" y1="2.54331" x2="20.7447" y2="2.54331" gradientUnits="userSpaceOnUse">
<stop offset="0.3" stop-color="#652EBC"/>
<stop offset="1" stop-color="#220B59"/>
</linearGradient>
</defs>
</svg>
