<svg width="36" height="36" viewBox="0 0 36 36" fill="none" xmlns="http://www.w3.org/2000/svg">
<circle cx="18" cy="18" r="18" fill="#E6E6E6"/>
<path d="M25.4998 17.3532V16.1665C25.4998 14.1774 24.7096 12.2697 23.3031 10.8632C21.8965 9.45668 19.9889 8.6665 17.9998 8.6665C16.0106 8.6665 14.103 9.45668 12.6965 10.8632C11.2899 12.2697 10.4998 14.1774 10.4998 16.1665V17.3532C9.62572 17.738 8.91042 18.4115 8.47361 19.2607C8.03679 20.11 7.90497 21.0835 8.10022 22.0184C8.29547 22.9532 8.80593 23.7926 9.54615 24.396C10.2864 24.9995 11.2114 25.3303 12.1664 25.3332C12.6084 25.3332 13.0324 25.1576 13.3449 24.845C13.6575 24.5325 13.8331 24.1085 13.8331 23.6665V18.6665C13.8331 18.2245 13.6575 17.8006 13.3449 17.488C13.0324 17.1754 12.6084 16.9998 12.1664 16.9998V16.1665C12.1664 14.6194 12.781 13.1357 13.875 12.0417C14.9689 10.9478 16.4527 10.3332 17.9998 10.3332C19.5469 10.3332 21.0306 10.9478 22.1245 12.0417C23.2185 13.1357 23.8331 14.6194 23.8331 16.1665V16.9998C23.3911 16.9998 22.9671 17.1754 22.6546 17.488C22.342 17.8006 22.1664 18.2245 22.1664 18.6665V23.6665H19.6664C19.4454 23.6665 19.2334 23.7543 19.0772 23.9106C18.9209 24.0669 18.8331 24.2788 18.8331 24.4998C18.8331 24.7209 18.9209 24.9328 19.0772 25.0891C19.2334 25.2454 19.4454 25.3332 19.6664 25.3332H23.8331C24.7881 25.3303 25.7131 24.9995 26.4534 24.396C27.1936 23.7926 27.704 22.9532 27.8993 22.0184C28.0945 21.0835 27.9627 20.11 27.5259 19.2607C27.0891 18.4115 26.3738 17.738 25.4998 17.3532V17.3532ZM12.1664 23.6665C11.5034 23.6665 10.8675 23.4031 10.3987 22.9343C9.92981 22.4654 9.66642 21.8295 9.66642 21.1665C9.66642 20.5035 9.92981 19.8676 10.3987 19.3987C10.8675 18.9299 11.5034 18.6665 12.1664 18.6665V23.6665ZM23.8331 23.6665V18.6665C24.4961 18.6665 25.132 18.9299 25.6009 19.3987C26.0697 19.8676 26.3331 20.5035 26.3331 21.1665C26.3331 21.8295 26.0697 22.4654 25.6009 22.9343C25.132 23.4031 24.4961 23.6665 23.8331 23.6665Z" fill="#111111"/>
</svg>
