<svg width="54" height="56" viewBox="0 0 54 56" fill="none" xmlns="http://www.w3.org/2000/svg">
<path d="M2.25 25.054C2.25 23.4745 2.25 22.6847 2.45358 21.9575C2.6339 21.3132 2.93026 20.7073 3.32807 20.1694C3.77718 19.5622 4.40056 19.0774 5.64732 18.1077L24.2987 3.60106C25.2648 2.84961 25.7479 2.47389 26.2813 2.32946C26.752 2.20203 27.248 2.20203 27.7187 2.32946C28.2521 2.47389 28.7352 2.84961 29.7013 3.60106L48.3527 18.1077C49.5994 19.0774 50.2228 19.5622 50.6719 20.1694C51.0697 20.7073 51.3661 21.3132 51.5464 21.9575C51.75 22.6847 51.75 23.4745 51.75 25.054V44.95C51.75 48.0303 51.75 49.5705 51.1505 50.747C50.6232 51.7819 49.7818 52.6233 48.747 53.1506C47.5704 53.75 46.0303 53.75 42.95 53.75H11.05C7.96971 53.75 6.42957 53.75 5.25305 53.1506C4.21816 52.6233 3.37677 51.7819 2.84946 50.747C2.25 49.5705 2.25 48.0303 2.25 44.95V25.054Z" stroke="#333333" stroke-width="4" stroke-linecap="round" stroke-linejoin="round"/>
</svg>
