<svg width="287" height="74" viewBox="0 0 287 74" fill="none" xmlns="http://www.w3.org/2000/svg">
<g clip-path="url(#clip0_340_698)">
<path fill-rule="evenodd" clip-rule="evenodd" d="M0 57.8087C0 65.5217 8.97664 69.7565 14.9408 64.8695L23.5343 57.826C23.5343 57.826 23.5517 57.8086 23.5517 57.7913V35.4521C23.5517 35.4521 23.5343 35.4086 23.5082 35.4086H10.6745C10.6745 35.4086 10.6222 35.3739 10.6396 35.3478L31.9972 0.226037C31.9972 0.226037 31.9972 0.165167 31.9624 0.165167C30.7348 0.0347326 29.4897 -0.0174413 28.2185 0.0173414C12.4158 0.391254 0 13.7391 0 29.5304V57.8087Z" fill="white"/>
<path fill-rule="evenodd" clip-rule="evenodd" d="M45.1185 27.4434L23.6216 57.7217C23.6216 57.7217 23.6216 57.7912 23.6564 57.7912L29.072 57.8173C44.9879 57.8173 58.0132 44.8086 58.0132 28.913C58.0132 14.0695 46.6683 1.74774 32.2151 0.173828C32.189 0.173828 32.1716 0.191219 32.1716 0.217306V27.4086C32.1716 27.4086 32.189 27.4521 32.2151 27.4521H45.1272L45.1185 27.4434Z" fill="white"/>
<path d="M92.9268 53.8261C89.5573 53.8261 86.6754 53.0435 84.2636 51.4783C81.8518 49.9131 80.0147 47.7652 78.7348 45.0435C77.4549 42.3218 76.8193 39.2174 76.8193 35.7391C76.8193 32.2609 77.3766 29.0522 78.4997 25.8435C79.6142 22.6435 81.2424 19.7478 83.3755 17.1652C85.5087 14.5826 88.0858 12.5391 91.1071 11.0348C94.1283 9.53045 97.5239 8.77393 101.294 8.77393C103.297 8.77393 105.02 9.0174 106.474 9.51306C107.928 10.0087 109.226 10.7131 110.375 11.6174C111.524 12.5304 112.604 13.6261 113.614 14.9044L109.522 17.1652L112.613 9.46958H122.016L116.966 39.2087C116.731 40.6 116.618 41.7044 116.618 42.5131C116.618 43.7304 116.931 44.4435 117.558 44.6435C118.185 44.8435 119.291 44.9478 120.884 44.9478L118.446 53.8174C115.721 53.8174 113.588 53.7131 112.047 53.487C110.506 53.2696 109.322 52.8609 108.477 52.2696C107.632 51.6783 106.91 50.8174 106.3 49.7044C105.691 48.5913 104.951 47.1478 104.08 45.3739L107.693 46.9826C106.622 47.9652 105.412 48.9913 104.08 50.0435C102.748 51.1044 101.181 51.9913 99.3785 52.7218C97.5762 53.4435 95.4343 53.8087 92.9355 53.8087L92.9268 53.8261ZM96.5836 44.9565C98.9954 44.9565 100.963 44.3739 102.504 43.2174C104.045 42.0609 105.229 40.5652 106.074 38.7391C106.919 36.9131 107.502 35.0087 107.833 33.0174C108.164 31.0348 108.338 29.2087 108.338 27.5565C108.338 24.5131 107.728 22.1044 106.509 20.3131C105.29 18.5304 103.288 17.6435 100.502 17.6435C98.0376 17.6435 95.861 18.4 93.989 19.9044C92.1171 21.4087 90.663 23.4348 89.6182 25.9652C88.5734 28.5044 88.051 31.287 88.051 34.3304C88.051 37.3739 88.7214 40.0522 90.071 42.0087C91.4205 43.9652 93.5885 44.9478 96.5836 44.9478V44.9565Z" fill="white"/>
<path d="M126.709 52.9566L134.371 9.47837H144.645L142.86 22.6088L137.418 52.9566H126.709ZM142.251 24.1305L143.469 14.7392C144.053 13.8958 144.976 13.0175 146.256 12.0871C147.535 11.1566 148.99 10.374 150.626 9.73924C152.263 9.10445 153.926 8.78271 155.615 8.78271H158.663L154.832 18.9566H150.74C149.521 18.9566 148.345 19.1914 147.213 19.6523C146.081 20.1131 145.08 20.7392 144.21 21.5218C143.339 22.3045 142.686 23.174 142.251 24.1305Z" fill="white"/>
<path d="M152.568 74L163.974 9.47822H173.464L173.682 18.3043L171.07 15.4347C173.133 13.5217 175.362 11.9391 177.774 10.6782C180.186 9.41735 182.98 8.79126 186.176 8.79126C189.371 8.79126 192.192 9.55648 194.465 11.0695C196.746 12.5913 198.487 14.7304 199.689 17.4869C200.89 20.2434 201.5 23.4608 201.5 27.1391C201.5 31.113 200.995 34.7304 199.993 38.0087C198.992 41.2869 197.538 44.1043 195.64 46.4695C193.742 48.8347 191.452 50.6521 188.779 51.9217C186.106 53.2 183.094 53.8347 179.724 53.8347C176.093 53.8347 173.211 53 171.078 51.3304C168.945 49.6608 167.448 47.7739 166.577 45.6521L168.754 43.1739L163.355 74H152.559H152.568ZM178.862 44.9565C181.152 44.9565 183.163 44.2347 184.887 42.8087C186.611 41.3739 187.952 39.4 188.91 36.8695C189.867 34.3391 190.346 31.4521 190.346 28.1739C190.346 24.8956 189.754 22.5043 188.561 20.5652C187.369 18.626 185.444 17.6521 182.771 17.6521C180.098 17.6521 177.8 18.4434 175.867 20.0173C173.934 21.6 172.454 23.713 171.427 26.3652C170.399 29.0173 169.877 31.9652 169.877 35.2087C169.877 38.4521 170.599 40.7478 172.053 42.426C173.507 44.1043 175.771 44.9478 178.845 44.9478L178.862 44.9565Z" fill="white"/>
<path d="M223.963 53.8262C219.932 53.8262 216.58 52.9827 213.907 51.2871C211.234 49.5914 209.24 47.3305 207.916 44.5045C206.593 41.6784 205.94 38.5566 205.94 35.1305C205.94 31.7045 206.567 28.4262 207.812 25.2784C209.057 22.1305 210.816 19.3218 213.079 16.8436C215.343 14.3653 218.025 12.4001 221.133 10.9566C224.241 9.50445 227.646 8.78271 231.364 8.78271C235.395 8.78271 238.747 9.62619 241.42 11.3218C244.093 13.0175 246.087 15.2784 247.41 18.1045C248.734 20.9305 249.387 24.0523 249.387 27.4784C249.387 30.9045 248.76 34.1827 247.515 37.3305C246.27 40.4784 244.511 43.2871 242.247 45.7653C239.983 48.2436 237.302 50.2088 234.193 51.661C231.085 53.1131 227.681 53.8349 223.963 53.8349V53.8262ZM225.443 44.9566C227.968 44.9566 230.197 44.1914 232.121 42.6523C234.054 41.1131 235.552 39.0784 236.631 36.5392C237.702 34.0001 238.242 31.2436 238.242 28.2523C238.242 24.9479 237.537 22.3566 236.135 20.4697C234.724 18.5827 232.643 17.6436 229.892 17.6436C227.393 17.6436 225.182 18.4001 223.258 19.9045C221.325 21.4088 219.818 23.4262 218.73 25.9479C217.642 28.4697 217.093 31.2349 217.093 34.2523C217.093 37.5566 217.79 40.1653 219.183 42.0784C220.576 43.9914 222.666 44.9479 225.452 44.9479L225.443 44.9566Z" fill="white"/>
<path d="M265.581 53.826C262.882 53.826 260.296 53.513 257.832 52.8869C255.368 52.2608 253.13 51.5043 251.128 50.6087L253.653 41.3913C255.368 42.4347 257.318 43.4173 259.513 44.3478C261.707 45.2782 263.988 45.7391 266.373 45.7391C268.611 45.7391 270.239 45.2608 271.267 44.3043C272.294 43.3478 272.808 42.1739 272.808 40.7826C272.808 39.1304 272.268 37.8956 271.171 37.0869C270.083 36.2782 268.42 35.5043 266.182 34.7826C264.205 34.113 262.438 33.3478 260.871 32.4782C259.304 31.6086 258.067 30.4608 257.17 29.0434C256.274 27.626 255.821 25.7652 255.821 23.4782C255.821 20.6956 256.526 18.2 257.928 15.9826C259.338 13.7652 261.393 12.0087 264.092 10.7217C266.791 9.43474 270.1 8.79126 274.018 8.79126C276.804 8.79126 279.285 9.113 281.462 9.74778C283.639 10.3826 285.485 11.1391 286.991 12.0087L284.64 20.7043C283.134 19.6 281.401 18.6347 279.46 17.7913C277.518 16.9478 275.298 16.5304 272.799 16.5304C270.796 16.5304 269.151 16.9043 267.854 17.6434C266.565 18.3826 265.921 19.6087 265.921 21.313C265.921 23.1652 266.713 24.4695 268.289 25.226C269.874 25.9826 271.893 26.8173 274.366 27.7478C276.43 28.5043 278.154 29.3826 279.547 30.3826C280.94 31.3826 281.993 32.6173 282.699 34.0782C283.412 35.5391 283.769 37.3478 283.769 39.4869C283.769 41.4608 283.386 43.313 282.611 45.0521C281.845 46.7913 280.687 48.3217 279.146 49.6347C277.605 50.9565 275.707 51.9826 273.443 52.7217C271.18 53.4608 268.55 53.8347 265.564 53.8347L265.581 53.826Z" fill="white"/>
</g>
<defs>
<clipPath id="clip0_340_698">
<rect width="287" height="74" fill="white"/>
</clipPath>
</defs>
</svg>
