<svg width="25" height="25" viewBox="0 0 25 25" fill="none" xmlns="http://www.w3.org/2000/svg">
<path d="M1.44775 23.9402C1.229 23.9402 1.0415 23.7601 1.0415 23.5269V20.1357L14.5832 6.35864L18.3228 10.1632L4.78109 23.9402H1.44775Z" fill="#808080"/>
<path d="M14.5833 7.85291L16.8437 10.1526L4.34375 22.8699H2.08333V20.5702L14.5833 7.85291ZM14.5833 4.85376L0 19.7012V23.5269C0 24.343 0.645833 25 1.44792 25H5.20833L19.7917 10.1632L14.5833 4.86436V4.85376Z" fill="#808080"/>
<path d="M19.7886 1.05798L18.1387 2.73657L21.8731 6.53588L23.523 4.85729L19.7886 1.05798Z" fill="#808080"/>
<path d="M19.792 2.55405L22.0524 4.85375L21.8753 5.03391L19.6149 2.73421L19.792 2.55405ZM19.792 0C19.5212 0 19.2607 0.105977 19.0524 0.307334L16.667 2.73421L21.8753 8.03307L24.2607 5.60619C24.667 5.19288 24.667 4.52522 24.2607 4.11191L20.5212 0.307334C20.3128 0.0953794 20.0524 0 19.7816 0L19.792 0Z" fill="#808080"/>
</svg>
