<svg width="488" height="126" viewBox="0 0 488 126" fill="none" xmlns="http://www.w3.org/2000/svg">
<g clip-path="url(#clip0_343_779)">
<path fill-rule="evenodd" clip-rule="evenodd" d="M0 98.4313C0 111.564 15.2634 118.775 25.4045 110.454L40.0165 98.4609C40.0165 98.4609 40.0461 98.4313 40.0461 98.4016V60.3648C40.0461 60.3648 40.0165 60.2907 39.9721 60.2907H18.1503C18.1503 60.2907 18.0615 60.2315 18.0911 60.1871L54.4065 0.385197C54.4065 0.385197 54.4064 0.281554 54.3472 0.281554C52.2598 0.0594627 50.1428 -0.029374 47.9813 0.0298505C21.1112 0.666513 0 23.3939 0 50.2818V98.4313Z" fill="url(#paint0_linear_343_779)"/>
<path fill-rule="evenodd" clip-rule="evenodd" d="M76.7168 46.7281L40.1646 98.283C40.1646 98.283 40.1646 98.4014 40.2238 98.4014L49.4322 98.4459C76.4947 98.4459 98.6422 76.2959 98.6422 49.2303C98.6422 23.9563 79.352 2.97605 54.7766 0.296143C54.7322 0.296143 54.7025 0.325755 54.7025 0.370173V46.6689C54.7025 46.6689 54.7322 46.7429 54.7766 46.7429H76.7316L76.7168 46.7281Z" fill="url(#paint1_linear_343_779)"/>
<path d="M158.008 91.6499C152.279 91.6499 147.379 90.3174 143.278 87.6523C139.177 84.9872 136.053 81.3301 133.877 76.6957C131.701 72.0614 130.62 66.7756 130.62 60.8532C130.62 54.9308 131.567 49.4673 133.477 44.0038C135.372 38.5552 138.141 33.6248 141.768 29.2273C145.395 24.8299 149.777 21.3505 154.914 18.789C160.051 16.2276 165.825 14.9395 172.235 14.9395C175.64 14.9395 178.572 15.354 181.044 16.198C183.516 17.0419 185.722 18.2412 187.676 19.7811C189.631 21.3357 191.466 23.2013 193.184 25.3778L186.225 29.2273L191.481 16.1239H207.47L198.883 66.7608C198.484 69.1298 198.291 71.0102 198.291 72.3872C198.291 74.46 198.824 75.6741 199.89 76.0147C200.956 76.3552 202.836 76.5329 205.545 76.5329L201.4 91.6351C196.766 91.6351 193.139 91.4574 190.519 91.0725C187.898 90.7023 185.885 90.0064 184.449 88.9996C183.013 87.9928 181.784 86.527 180.748 84.6318C179.712 82.7366 178.453 80.2788 176.973 77.2584L183.117 79.9975C181.296 81.6706 179.238 83.4177 176.973 85.2093C174.708 87.0156 172.043 88.5258 168.978 89.7695C165.914 90.9984 162.272 91.6203 158.023 91.6203L158.008 91.6499ZM164.226 76.5477C168.327 76.5477 171.673 75.5557 174.293 73.5865C176.913 71.6172 178.927 69.0706 180.363 65.9613C181.799 62.852 182.791 59.6095 183.353 56.2189C183.916 52.8431 184.212 49.7338 184.212 46.9207C184.212 41.7385 183.176 37.6372 181.103 34.5872C179.031 31.5519 175.625 30.0417 170.888 30.0417C166.698 30.0417 162.997 31.3298 159.814 33.8913C156.631 36.4527 154.159 39.9026 152.382 44.2111C150.606 48.5345 149.718 53.2725 149.718 58.4546C149.718 63.6367 150.858 68.197 153.152 71.5284C155.447 74.8598 159.133 76.5329 164.226 76.5329V76.5477Z" fill="#4751ED"/>
<path d="M215.449 90.1694L228.477 16.1388H245.947L242.912 38.4961L233.659 90.1694H215.449ZM241.875 41.0871L243.948 25.0965C244.94 23.6603 246.509 22.1649 248.686 20.5807C250.862 18.9964 253.334 17.6639 256.117 16.583C258.901 15.5022 261.728 14.9543 264.6 14.9543H269.782L263.268 32.2775H256.31C254.237 32.2775 252.239 32.6773 250.314 33.462C248.389 34.2467 246.687 35.3127 245.206 36.6453C243.726 37.9778 242.616 39.4585 241.875 41.0871Z" fill="#4751ED"/>
<path d="M259.419 126L278.813 16.1387H294.95L295.32 31.1669L290.878 26.2809C294.387 23.0235 298.177 20.3288 302.278 18.1819C306.379 16.035 311.131 14.969 316.564 14.969C321.997 14.969 326.794 16.2719 330.658 18.8482C334.537 21.4393 337.498 25.0816 339.541 29.7751C341.584 34.4686 342.62 39.9469 342.62 46.2099C342.62 52.9763 341.761 59.1356 340.059 64.7175C338.356 70.2994 335.884 75.0966 332.657 79.1239C329.429 83.1511 325.536 86.2456 320.991 88.4073C316.446 90.5838 311.323 91.6646 305.594 91.6646C299.421 91.6646 294.52 90.2433 290.893 87.4005C287.266 84.5577 284.72 81.3448 283.239 77.7321L286.94 73.5124L277.762 126H259.404H259.419ZM304.128 76.5476C308.022 76.5476 311.442 75.3187 314.373 72.8905C317.304 70.4475 319.584 67.0865 321.213 62.7779C322.841 58.4693 323.655 53.5537 323.655 47.9718C323.655 42.3899 322.649 38.3182 320.621 35.0165C318.592 31.7147 315.321 30.0564 310.776 30.0564C306.231 30.0564 302.322 31.4038 299.036 34.0837C295.749 36.7784 293.232 40.3763 291.485 44.8921C289.738 49.408 288.85 54.4273 288.85 59.95C288.85 65.4726 290.079 69.3815 292.551 72.239C295.024 75.0966 298.873 76.5328 304.099 76.5328L304.128 76.5476Z" fill="#1B1B1B"/>
<path d="M380.815 91.65C373.961 91.65 368.261 90.2138 363.716 87.3266C359.171 84.4394 355.781 80.5898 353.531 75.7779C351.281 70.9659 350.17 65.6505 350.17 59.8169C350.17 53.9833 351.236 48.4013 353.353 43.0415C355.47 37.6817 358.461 32.8994 362.31 28.6796C366.159 24.4599 370.719 21.1137 376.004 18.6559C381.289 16.1833 387.078 14.9543 393.399 14.9543C400.254 14.9543 405.953 16.3905 410.498 19.2777C415.043 22.1649 418.434 26.0145 420.684 30.8265C422.934 35.6385 424.045 40.9539 424.045 46.7875C424.045 52.6211 422.979 58.203 420.862 63.5628C418.745 68.9226 415.754 73.705 411.905 77.9247C408.056 82.1445 403.496 85.4907 398.211 87.9633C392.926 90.4359 387.137 91.6648 380.815 91.6648V91.65ZM383.332 76.5478C387.625 76.5478 391.415 75.2448 394.687 72.6241C397.974 70.0035 400.52 66.5388 402.356 62.2155C404.177 57.8921 405.095 53.1985 405.095 48.1052C405.095 42.4789 403.896 38.0667 401.512 34.8538C399.114 31.6408 395.576 30.0418 390.897 30.0418C386.648 30.0418 382.888 31.3299 379.616 33.8914C376.33 36.4528 373.769 39.8878 371.918 44.1816C370.067 48.4754 369.135 53.1837 369.135 58.3214C369.135 63.9478 370.319 68.3896 372.688 71.6469C375.057 74.9043 378.61 76.533 383.347 76.533L383.332 76.5478Z" fill="#1B1B1B"/>
<path d="M451.581 91.6498C446.991 91.6498 442.595 91.1168 438.405 90.0508C434.215 88.9847 430.41 87.6966 427.005 86.1716L431.299 70.4771C434.215 72.2538 437.531 73.9269 441.262 75.5112C444.993 77.0954 448.872 77.8802 452.928 77.8802C456.733 77.8802 459.501 77.0658 461.248 75.4372C462.995 73.8085 463.869 71.8097 463.869 69.4407C463.869 66.6275 462.951 64.525 461.085 63.1481C459.235 61.7711 456.407 60.4534 452.602 59.2245C449.242 58.0844 446.236 56.7814 443.572 55.3008C440.907 53.8202 438.805 51.8658 437.28 49.4524C435.755 47.039 434.985 43.8705 434.985 39.9765C434.985 35.2386 436.184 30.9892 438.568 27.2136C440.966 23.4381 444.46 20.4473 449.049 18.256C453.639 16.0646 459.264 14.969 465.926 14.969C470.664 14.969 474.883 15.5168 478.584 16.5977C482.285 17.6785 485.424 18.9666 487.985 20.4473L483.988 35.2534C481.427 33.373 478.481 31.7295 475.179 30.2933C471.878 28.8571 468.103 28.1464 463.854 28.1464C460.449 28.1464 457.651 28.7831 455.445 30.0416C453.254 31.3001 452.158 33.3878 452.158 36.2898C452.158 39.4435 453.505 41.6644 456.185 42.9525C458.879 44.2407 462.314 45.6621 466.519 47.2463C470.027 48.5344 472.958 50.0299 475.327 51.7326C477.696 53.4353 479.487 55.5377 480.686 58.0252C481.9 60.5126 482.507 63.5923 482.507 67.2346C482.507 70.5956 481.856 73.7493 480.538 76.7105C479.236 79.6717 477.267 82.2776 474.646 84.5133C472.026 86.7638 468.798 88.5109 464.949 89.7695C461.1 91.028 456.629 91.6646 451.551 91.6646L451.581 91.6498Z" fill="#1B1B1B"/>
</g>
<defs>
<linearGradient id="paint0_linear_343_779" x1="0" y1="57.0038" x2="54.4213" y2="57.0038" gradientUnits="userSpaceOnUse">
<stop stop-color="#3898FF"/>
<stop offset="1" stop-color="#4751ED"/>
</linearGradient>
<linearGradient id="paint1_linear_343_779" x1="40.1646" y1="49.3636" x2="98.6422" y2="49.3636" gradientUnits="userSpaceOnUse">
<stop stop-color="#3898FF"/>
<stop offset="1" stop-color="#4751ED"/>
</linearGradient>
<clipPath id="clip0_343_779">
<rect width="488" height="126" fill="white"/>
</clipPath>
</defs>
</svg>
